<?xml version="1.0" encoding="UTF-8" standalone="no"?><svg width="32" height="32" viewBox="0 0 32 32" fill="none" xmlns="http://www.w3.org/2000/svg">
<path d="M27.0617 0H4.93827C2.21094 0 0 2.21094 0 4.93827V27.0617C0 29.7891 2.21094 32 4.93827 32H27.0617C29.7891 32 32 29.7891 32 27.0617V4.93827C32 2.21094 29.7891 0 27.0617 0Z" fill="white"/>
<rect x="24.7429" y="5.81956" width="4.5076" height="20.694" rx="2.2538" fill="url(#paint0_linear_36_43)"/>
<rect x="13.5763" y="5.01425" width="4.5076" height="23.1527" rx="2.2538" transform="rotate(30 13.5763 5.01425)" fill="url(#paint1_linear_36_43)"/>
<rect x="18.9568" y="17.3802" width="4.5076" height="8.87369" rx="2.2538" transform="rotate(30 18.9568 17.3802)" fill="url(#paint2_linear_36_43)"/>
<rect x="26.0963" y="5.01425" width="4.5076" height="13.5274" rx="2.2538" transform="rotate(30 26.0963 5.01425)" fill="url(#paint3_linear_36_43)"/>
<rect x="15.9962" y="11.6512" width="4.5076" height="15.4726" rx="2.2538" transform="rotate(30 15.9962 11.6512)" fill="url(#paint4_linear_36_43)"/>
<rect x="19.8363" y="5" width="4.5076" height="6.79106" rx="2.2538" transform="rotate(30 19.8363 5)" fill="url(#paint5_linear_36_43)"/>
<defs>
<linearGradient id="paint0_linear_36_43" x1="26.9967" y1="5.81956" x2="26.9967" y2="26.5136" gradientUnits="userSpaceOnUse">
<stop stop-color="#ED5F6C"/>
<stop offset="1" stop-color="#21059F"/>
</linearGradient>
<linearGradient id="paint1_linear_36_43" x1="15.8301" y1="5.01425" x2="15.8301" y2="28.1669" gradientUnits="userSpaceOnUse">
<stop stop-color="#FF6767"/>
<stop offset="1" stop-color="#1700A2"/>
</linearGradient>
<linearGradient id="paint2_linear_36_43" x1="21.2106" y1="17.3802" x2="21.2106" y2="26.2539" gradientUnits="userSpaceOnUse">
<stop stop-color="#FF6767"/>
<stop offset="1" stop-color="#1700A2"/>
</linearGradient>
<linearGradient id="paint3_linear_36_43" x1="28.3501" y1="5.01425" x2="28.3501" y2="18.5417" gradientUnits="userSpaceOnUse">
<stop stop-color="#FF6767"/>
<stop offset="1" stop-color="#1700A2"/>
</linearGradient>
<linearGradient id="paint4_linear_36_43" x1="18.25" y1="11.6512" x2="18.25" y2="27.1238" gradientUnits="userSpaceOnUse">
<stop stop-color="#FF6767"/>
<stop offset="1" stop-color="#1700A2"/>
</linearGradient>
<linearGradient id="paint5_linear_36_43" x1="22.0901" y1="5" x2="22.0901" y2="11.7911" gradientUnits="userSpaceOnUse">
<stop stop-color="#FF6767"/>
<stop offset="1" stop-color="#1700A2"/>
</linearGradient>
</defs>
</svg>
